<?xml version="1.0" encoding="utf-8"?>
<!-- Generator: Adobe Illustrator 25.1.0, SVG Export Plug-In . SVG Version: 6.00 Build 0)  -->
<svg version="1.1" id="Layer_1" xmlns="http://www.w3.org/2000/svg" xmlns:xlink="http://www.w3.org/1999/xlink" x="0px" y="0px"
	 viewBox="0 0 14400 14400" style="enable-background:new 0 0 14400 14400;" xml:space="preserve">
<style type="text/css">
	.st0{fill:#FFFF00;}
</style>
<g>
	<g>
		<path class="st0" d="M7002.69,7310.31c22.66-39.87,43.07-81.18,69.38-118.86c2.97-4.25,6.01-8.45,9.13-12.58
			c0.7-0.93,1.43-1.84,2.12-2.78c-2.32,3.13,0.21-0.26,0.7-0.88c1.59-2.01,3.2-4.01,4.83-5.99c6.37-7.73,13.08-15.2,20.16-22.29
			c7.21-7.22,14.81-14.07,22.81-20.4c0.36-0.29,0.73-0.57,1.09-0.86c2-1.57-2.26,1.72-0.23,0.18c0.92-0.7,1.84-1.39,2.77-2.08
			c2.04-1.51,4.11-2.98,6.21-4.42c4.19-2.88,8.47-5.61,12.86-8.17c4.79-2.8,9.7-5.41,14.71-7.8c1.26-0.6,2.53-1.19,3.8-1.76
			c0.64-0.29,1.28-0.56,1.92-0.85c2.07-0.91-2.54,1.03-0.28,0.12c2.61-1.05,5.22-2.08,7.87-3.02c10.85-3.86,22.08-6.59,33.49-8.17
			c-1.06,0.14-2.13,0.29-3.19,0.43c13.42-1.8,27.02-1.96,40.45-0.19c-1.06-0.14-2.13-0.29-3.19-0.43c9.16,1.25,18.19,3.37,26.89,6.5
			c1.09,0.39,2.17,0.8,3.24,1.22c0.43,0.17,0.86,0.35,1.29,0.51c2.38,0.93-2.64-1.17-0.31-0.14c2.12,0.94,4.22,1.9,6.3,2.95
			c4.21,2.12,8.28,4.5,12.21,7.1c1.88,1.24,3.73,2.54,5.54,3.88c0.48,0.35,0.95,0.71,1.42,1.07c1.6,1.19-0.6-0.43-0.74-0.57
			c0.95,0.99,2.26,1.8,3.32,2.68c3.66,3.04,7.17,6.26,10.54,9.61c6.83,6.78,12.69,14.24,18.89,21.56c-0.13-0.16-1.77-2.31-0.56-0.72
			c0.36,0.48,0.72,0.95,1.08,1.43c0.65,0.86,1.29,1.72,1.93,2.59c1.55,2.1,3.08,4.22,4.58,6.36c2.73,3.9,5.37,7.86,7.92,11.88
			c5.13,8.09,9.9,16.41,14.35,24.89c4.52,8.63,8.7,17.43,12.58,26.37c0.35,0.8,1.88,4.74,0.54,1.24c0.44,1.16,0.96,2.29,1.43,3.43
			c0.94,2.29,1.86,4.6,2.77,6.91c1.8,4.62,3.53,9.27,5.17,13.94c7.26,20.63,13.01,41.78,17.17,63.25
			c1.19,6.18,8.93,10.27,14.76,8.38c6.58-2.13,9.66-8.15,8.38-14.76c-8.55-44.17-23.72-87.54-45.36-127.01
			c-10.73-19.58-23.36-38.23-37.93-55.17c-14.48-16.83-31.92-31.94-52.27-41.17c-20.58-9.33-43.02-13.64-65.6-12.99
			c-23.02,0.67-45.38,6.12-66.47,15.18c-39.27,16.88-71.88,47.12-97.85,80.52c-29.51,37.94-51.6,80.58-74.8,122.48
			c-2.83,5.11-5.68,10.2-8.56,15.28c-3.1,5.46-1.47,13.37,4.31,16.42C6991.97,7317.62,6999.38,7316.14,7002.69,7310.31
			L7002.69,7310.31z"/>
	</g>
</g>
<g>
	<g>
		<path class="st0" d="M7209.86,7310.31c15.55-20.61,30.74-41.5,45.72-62.53c15.64-21.96,31.05-44.08,46.34-66.28
			c15.5-22.5,30.89-45.08,46.27-67.66c15.32-22.5,30.62-45,46.02-67.44c14.84-21.62,29.77-43.19,44.91-64.6
			c1.84-2.6,3.68-5.2,5.52-7.79c1.71-2.41,1.96-6.51,1.21-9.25c-0.77-2.78-2.92-5.8-5.51-7.17c-2.79-1.47-6.16-2.21-9.25-1.21
			c-3.12,1.01-5.27,2.84-7.17,5.51c-15.16,21.33-30.09,42.82-44.92,64.38c-15.38,22.36-30.66,44.8-45.93,67.24
			c-15.38,22.6-30.76,45.19-46.24,67.72c-15.32,22.29-30.75,44.52-46.38,66.59c-14.97,21.13-30.14,42.13-45.65,62.86
			c-1.88,2.51-3.76,5.01-5.64,7.51c-1.75,2.32-1.94,6.59-1.21,9.25c0.77,2.78,2.92,5.8,5.51,7.17c2.79,1.47,6.16,2.21,9.25,1.21
			c0.96-0.4,1.91-0.81,2.87-1.21C7207.36,7313.54,7208.79,7312.11,7209.86,7310.31L7209.86,7310.31z"/>
	</g>
</g>
</svg>
